Coordinates
version=1
nRows=32
nColumns=12
inDegrees=yes

Units are S.I. units (second, meters, Newtons, ...)
Angles are in degrees

endheader
time	SC_y	SC_z	SC_x	AC_y	AC_z	AC_x	GH_y	GH_z	GH_yy	EL_x	PS_y
       0.0              -41.44           11.8        0.04867          62.64         -13.19         -12.33          5.732          73.56         -97.97          51.83          17.58
   0.04691              -41.44           11.8         0.0502          62.64         -13.19         -12.33          5.741          73.54         -97.97          51.84           17.6
   0.09382              -41.44           11.8        0.05183          62.64         -13.19         -12.33          5.752          73.53         -97.96          51.85          17.62
    0.1407              -41.44           11.8        0.05357          62.64         -13.19         -12.33          5.762          73.52         -97.95          51.86          17.64
    0.1876              -41.43           11.8        0.05541          62.64         -13.19         -12.33          5.774           73.5         -97.95          51.86          17.66
    0.2345              -41.43           11.8        0.05738          62.64         -13.19         -12.32          5.786          73.49         -97.94          51.87          17.68
    0.2814              -41.43           11.8        0.05949          62.64         -13.19         -12.32          5.799          73.47         -97.93          51.89           17.7
    0.3284              -41.43           11.8        0.06174          62.64         -13.19         -12.32          5.813          73.45         -97.92           51.9          17.73
    0.3753              -41.42           11.8        0.06414          62.64         -13.19         -12.32          5.828          73.44         -97.91          51.91          17.76
    0.4222              -41.42           11.8        0.06673          62.64         -13.19         -12.31          5.844          73.42          -97.9          51.92          17.79
    0.4691              -41.42           11.8         0.0695          62.65         -13.19         -12.31          5.862          73.39         -97.89          51.94          17.82
     0.516              -41.42           11.8        0.07249          62.65         -13.19          -12.3           5.88          73.37         -97.88          51.95          17.86
    0.5629              -41.41           11.8        0.07571          62.65         -13.19          -12.3          5.901          73.35         -97.86          51.97          17.89
    0.6098              -41.41          11.81        0.07918          62.65         -13.18          -12.3          5.922          73.32         -97.85          51.99          17.93
    0.6567              -41.41          11.81        0.08295          62.65         -13.18         -12.29          5.946          73.29         -97.83           52.0          17.98
    0.7036               -41.4          11.81        0.08703          62.65         -13.18         -12.29          5.971          73.26         -97.82          52.03          18.03
    0.7505               -41.4          11.81        0.09146          62.66         -13.18         -12.28          5.999          73.22          -97.8          52.05          18.08
    0.7974              -41.39          11.81        0.09629          62.66         -13.18         -12.27          6.029          73.19         -97.78          52.07          18.13
    0.8443              -41.39          11.81         0.1016          62.66         -13.18         -12.27          6.062          73.15         -97.76           52.1          18.19
    0.8912              -41.38          11.82         0.1073          62.67         -13.18         -12.26          6.098           73.1         -97.73          52.13          18.26
    0.9382              -41.37          11.82         0.1137          62.67         -13.18         -12.25          6.138          73.05         -97.71          52.16          18.34
    0.9851              -41.37          11.82         0.1207          62.67         -13.18         -12.24          6.181           73.0         -97.68           52.2          18.42
     1.032              -41.36          11.82         0.1284          62.68         -13.18         -12.23          6.229          72.94         -97.65          52.24          18.51
     1.079              -41.35          11.83         0.1369          62.68         -13.18         -12.22          6.282          72.87         -97.61          52.28          18.61
     1.126              -41.34          11.83         0.1464          62.69         -13.18         -12.21          6.342           72.8         -97.57          52.33          18.72
     1.173              -41.33          11.83          0.157          62.69         -13.18          -12.2          6.408          72.72         -97.53          52.38          18.84
      1.22              -41.32          11.84         0.1689           62.7         -13.18         -12.18          6.482          72.62         -97.48          52.44          18.98
     1.267               -41.3          11.84         0.1822           62.7         -13.18         -12.17          6.565          72.52         -97.42          52.51          19.13
     1.313              -41.29          11.85         0.1973          62.71         -13.17         -12.15          6.659           72.4         -97.36          52.59          19.31
      1.36              -41.27          11.85         0.2145          62.72         -13.17         -12.13          6.766          72.27         -97.29          52.67          19.51
     1.407              -41.25          11.86          0.234          62.73         -13.17          -12.1          6.888          72.12         -97.21          52.77          19.74
     1.454              -41.23          11.87         0.2564          62.74         -13.17         -12.07          7.028          71.95         -97.12          52.89           20.0
